<?xml version="1.0" standalone="no"?>
<!DOCTYPE svg PUBLIC "-//W3C//DTD SVG 20010904//EN"
 "http://www.w3.org/TR/2001/REC-SVG-20010904/DTD/svg10.dtd">
<svg version="1.0" xmlns="http://www.w3.org/2000/svg"
 width="342.000000pt" height="336.000000pt" viewBox="0 0 342.000000 336.000000"
 preserveAspectRatio="xMidYMid meet">

<g transform="translate(0.000000,336.000000) scale(0.100000,-0.100000)"
fill="#000000" stroke="none">
<path d="M1182 3099 c-37 -11 -122 -90 -122 -114 0 -21 -16 -19 -34 6 l-14 21
-11 -21 c-33 -60 -33 -215 0 -318 16 -50 32 -41 24 12 -12 84 34 158 110 175
32 7 44 4 87 -22 29 -18 70 -33 100 -37 49 -6 52 -8 61 -41 5 -19 7 -55 4 -79
-4 -37 -3 -41 9 -29 8 7 19 51 26 97 9 69 15 85 35 98 31 21 63 84 66 131 2
35 0 38 -48 62 -47 23 -104 30 -160 19 -16 -3 -20 1 -20 21 0 22 -4 25 -40 27
-22 1 -55 -3 -73 -8z"/>
<path d="M1983 3054 c-17 -13 -16 -15 18 -46 19 -18 44 -38 55 -45 17 -11 16
-12 -11 -13 -59 -1 -74 -11 -102 -69 -23 -46 -28 -68 -26 -126 0 -38 9 -97 18
-130 31 -107 30 -125 -9 -216 -6 -13 8 -25 61 -54 37 -21 78 -45 91 -53 14 -9
22 -10 22 -3 0 6 -14 20 -31 30 l-32 20 34 3 c48 4 48 29 0 61 -46 30 -97 111
-106 168 -4 20 -1 55 5 78 9 33 15 41 34 41 26 0 111 54 120 76 4 11 14 5 42
-25 22 -25 55 -48 87 -59 l52 -20 3 -67 c3 -57 -1 -73 -23 -111 -14 -24 -41
-56 -60 -71 -43 -34 -48 -73 -10 -73 33 0 101 -62 114 -103 21 -72 23 -90 7
-84 -31 12 -15 -9 24 -31 l40 -23 0 38 c0 54 -16 103 -45 143 -29 39 -31 50
-10 50 9 0 30 7 47 16 31 16 31 16 11 33 -48 38 -77 149 -57 216 18 57 17 192
-1 253 -18 59 -46 83 -106 92 l-39 5 47 35 c55 41 62 55 33 70 -27 15 -63 -7
-91 -55 -13 -22 -29 -34 -48 -37 -25 -4 -34 2 -62 41 -40 52 -69 66 -96 45z"/>
<path d="M1640 2746 c-19 -30 -38 -52 -43 -49 -6 3 -7 1 -3 -6 4 -6 -5 -30
-19 -54 -15 -23 -51 -81 -80 -129 l-54 -88 29 -15 c27 -14 30 -14 49 11 11 14
23 34 26 45 4 10 15 19 25 19 10 0 22 5 26 11 3 6 17 8 29 5 19 -5 26 0 38 24
12 24 13 31 2 40 -19 16 -12 81 12 121 27 44 34 112 12 117 -10 2 -28 -16 -49
-52z"/>
<path d="M1090 2763 c-22 -10 -29 -17 -20 -20 25 -6 93 11 98 25 5 17 -36 15
-78 -5z"/>
<path d="M1230 2771 c0 -14 9 -18 58 -26 50 -8 57 8 11 24 -39 13 -69 14 -69
2z"/>
<path d="M1120 2695 c0 -24 5 -35 15 -35 10 0 15 11 15 35 0 24 -5 35 -15 35
-10 0 -15 -11 -15 -35z"/>
<path d="M1260 2695 c0 -24 5 -35 15 -35 10 0 15 11 15 35 0 24 -5 35 -15 35
-10 0 -15 -11 -15 -35z"/>
<path d="M2024 2654 c-18 -15 -18 -15 6 -10 14 3 35 6 48 6 12 0 22 5 22 10 0
16 -54 12 -76 -6z"/>
<path d="M2170 2660 c0 -5 10 -10 23 -10 12 0 33 -3 47 -6 24 -5 24 -5 6 10
-22 18 -76 22 -76 6z"/>
<path d="M2057 2633 c-9 -14 5 -64 17 -60 15 5 14 59 -1 64 -6 2 -13 0 -16 -4z"/>
<path d="M2190 2605 c0 -23 5 -35 14 -35 18 0 26 22 19 49 -9 35 -33 25 -33
-14z"/>
<path d="M1178 2459 c14 -14 62 -14 62 -1 0 4 -16 8 -35 8 -19 0 -32 -3 -27
-7z"/>
<path d="M1004 2396 c-46 -45 -74 -119 -74 -193 0 -43 0 -43 -35 -43 l-35 0 0
-66 0 -66 30 7 30 7 2 -94 c1 -51 2 -203 3 -338 2 -207 15 -440 40 -702 l6
-57 -33 -4 -33 -4 33 -1 c27 -2 32 -6 32 -26 0 -34 -50 -48 -174 -50 -118 -1
-207 10 -232 28 -17 13 -16 15 13 29 16 9 64 19 107 23 88 8 95 19 8 14 -78
-4 -94 -6 -117 -14 -62 -22 -77 -47 -48 -78 12 -14 23 -42 26 -71 5 -54 36
-104 84 -137 30 -20 46 -60 24 -60 -29 0 -106 83 -122 130 -6 19 -15 39 -19
43 -10 11 -160 -38 -201 -66 -41 -28 -47 -49 -20 -78 28 -30 14 -45 -52 -53
-95 -13 -163 -42 -219 -94 -34 -31 -35 -52 -5 -80 28 -26 168 -92 197 -92 12
0 30 -5 40 -10 20 -11 164 -34 310 -51 47 -5 126 -14 175 -20 116 -14 761 -14
930 0 121 9 348 42 405 57 14 4 32 8 40 10 76 15 106 25 166 53 38 18 83 45
100 62 26 25 42 31 115 39 46 5 99 7 117 4 18 -4 52 -1 75 5 23 6 101 18 172
26 72 9 139 17 150 20 11 3 36 7 55 11 157 26 210 39 275 69 75 34 75 34 75
73 0 22 -6 44 -12 50 -36 29 -234 83 -357 97 -18 3 -38 8 -45 13 -13 11 -168
27 -243 25 -29 -1 -53 3 -53 7 0 5 -19 9 -42 8 -24 -1 -70 4 -103 10 -76 15
-168 15 -182 1 -22 -22 -29 1 -22 72 5 40 10 78 13 84 2 7 23 15 45 19 23 3
41 10 41 16 0 5 -7 87 -16 182 -10 117 -20 178 -30 189 -16 18 -18 43 -4 69 7
13 5 70 -6 182 -8 90 -13 184 -10 210 3 26 1 50 -4 53 -5 3 -68 -17 -141 -45
l-133 -51 -26 30 -25 31 -18 -50 c-10 -27 -33 -70 -52 -94 -50 -66 -74 -189
-56 -290 24 -136 31 -192 37 -313 5 -90 10 -123 20 -123 20 0 22 -8 41 -154
20 -154 21 -149 -54 -161 -50 -7 -49 -4 -27 -129 8 -48 13 -91 10 -93 -7 -7
-188 -5 -289 3 l-78 7 2 96 c2 94 1 96 -22 99 -89 9 -199 36 -199 48 0 7 9 82
20 166 14 110 21 251 26 498 6 311 5 347 -9 359 -13 10 -36 11 -97 6 -72 -6
-80 -9 -80 -27 0 -20 -4 -21 -79 -14 -111 9 -111 9 -111 -85 0 -64 -3 -79 -15
-79 -12 0 -15 15 -15 75 0 67 -2 75 -22 86 -32 17 -38 28 -38 74 0 59 9 81 36
94 23 10 24 15 24 96 0 69 3 85 15 85 12 0 15 -17 15 -90 0 -81 2 -90 18 -90
11 0 26 -8 35 -18 14 -15 25 -17 69 -11 40 5 56 4 64 -7 13 -17 94 -19 94 -3
0 6 -13 27 -30 46 -16 18 -30 41 -30 51 0 9 9 80 20 157 25 174 25 173 -2 177
-20 3 -22 8 -20 48 6 87 31 128 108 177 16 10 12 12 -26 7 -85 -11 -129 -65
-138 -169 l-5 -65 -107 0 c-59 0 -109 2 -112 5 -9 10 13 108 33 148 11 21 33
46 50 55 36 21 37 29 2 30 -19 0 -41 -13 -69 -42z m210 -1311 c23 -133 25
-162 17 -254 -5 -57 -7 -110 -4 -117 6 -17 -4 -17 -45 -3 -37 13 -39 18 -48
137 -5 74 -2 127 17 252 13 88 27 154 30 147 4 -7 19 -79 33 -162z m1022 -242
c-3 -42 -6 -93 -6 -113 0 -33 -3 -38 -35 -47 l-35 -11 -1 61 c0 34 -4 88 -8
120 -4 32 -5 60 -2 62 2 3 24 5 49 5 l45 0 -7 -77z m-1256 -237 c-11 -30 -80
-97 -91 -90 -17 10 -9 29 25 56 19 15 40 44 47 63 12 32 14 33 21 15 4 -11 3
-31 -2 -44z m1165 -186 c8 -7 15 -21 15 -31 0 -16 -8 -19 -55 -19 -62 0 -80
17 -51 49 19 21 66 21 91 1z m235 11 c19 -5 47 -12 63 -15 18 -4 27 -13 27
-26 0 -19 -7 -20 -100 -20 l-100 0 0 31 c0 26 3 31 20 26 11 -3 23 -1 26 4 7
11 20 11 64 0z m-1280 -33 l0 -28 -120 0 c-112 0 -120 1 -120 19 0 16 11 21
53 29 28 5 82 9 119 8 67 -1 68 -1 68 -28z m279 18 c6 -4 11 -16 11 -27 0 -17
-7 -19 -80 -19 -70 0 -80 2 -80 18 0 10 5 23 10 28 11 11 121 11 139 0z"/>
<path d="M2120 2370 c0 -5 9 -10 19 -10 11 0 23 5 26 10 4 6 -5 10 -19 10 -14
0 -26 -4 -26 -10z"/>
<path d="M2075 2224 c4 -16 9 -96 11 -178 3 -149 3 -150 31 -177 l28 -28 92
36 c53 20 93 42 95 50 2 9 19 21 38 27 19 6 34 14 33 19 -2 4 -3 24 -3 45 0
37 -1 38 -97 94 -78 45 -104 55 -129 51 -29 -4 -33 -2 -38 24 -4 18 -19 36
-38 47 l-31 19 8 -29z"/>
<path d="M3001 1718 c-12 -19 -11 -23 5 -35 21 -15 40 -17 48 -4 4 5 -3 7 -14
4 -13 -4 -20 0 -20 9 0 22 12 29 27 17 9 -8 13 -8 13 -1 0 9 -30 32 -42 32 -2
0 -9 -10 -17 -22z"/>
<path d="M2710 1666 c0 -21 5 -26 26 -26 21 0 25 4 22 23 -2 14 -11 23 -25 25
-19 3 -23 -1 -23 -22z m40 4 c0 -5 -7 -10 -15 -10 -8 0 -15 5 -15 10 0 6 7 10
15 10 8 0 15 -4 15 -10z"/>
<path d="M840 850 c36 -11 50 -11 50 0 0 6 -17 10 -37 9 -34 -1 -35 -2 -13 -9z"/>
<path d="M1737 830 c-28 -27 -20 -40 23 -40 46 0 50 8 17 36 -21 19 -24 19
-40 4z"/>
<path d="M1571 817 c-8 -11 -7 -18 7 -30 16 -15 19 -15 31 5 11 17 11 22 -1
29 -18 12 -24 11 -37 -4z"/>
<path d="M235 800 c-11 -5 -37 -12 -59 -15 -28 -5 -36 -9 -27 -18 6 -6 67 -12
150 -15 111 -4 143 -2 160 10 20 14 18 15 -32 26 -79 17 -170 22 -192 12z"/>
<path d="M1755 740 c-3 -5 1 -10 10 -10 9 0 13 5 10 10 -3 6 -8 10 -10 10 -2
0 -7 -4 -10 -10z"/>
<path d="M1800 702 c0 -10 -5 -23 -12 -30 -9 -9 -9 -12 0 -12 7 0 15 7 18 15
9 21 31 19 44 -6 9 -15 19 -19 43 -17 43 4 41 22 -3 26 -20 2 -40 12 -48 23
-17 24 -42 25 -42 1z"/>
<path d="M1728 540 c-2 -58 0 -70 13 -70 22 0 52 74 44 110 -5 23 -12 30 -30
30 -22 0 -24 -4 -27 -70z"/>
<path d="M1820 578 c0 -19 2 -20 10 -8 13 19 13 30 0 30 -5 0 -10 -10 -10 -22z"/>
<path d="M1642 558 c4 -46 28 -49 28 -4 0 26 -4 36 -16 36 -11 0 -14 -8 -12
-32z"/>
<path d="M1860 501 c0 -17 -6 -31 -16 -35 -27 -10 -5 -26 37 -26 37 0 51 12
29 25 -5 3 -10 19 -10 36 0 22 -5 29 -20 29 -15 0 -20 -7 -20 -29z"/>
<path d="M2808 211 c-27 -8 -48 -20 -48 -26 0 -6 20 -17 45 -24 63 -19 465
-12 489 8 42 35 -32 50 -264 53 -129 2 -187 -1 -222 -11z"/>
</g>
</svg>
